<?xml version="1.0" encoding="utf-8"?>
<!-- Generator: Adobe Illustrator 24.2.3, SVG Export Plug-In . SVG Version: 6.00 Build 0)  -->
<svg version="1.1" baseProfile="tiny" id="daegu" xmlns="http://www.w3.org/2000/svg" xmlns:xlink="http://www.w3.org/1999/xlink"
	 x="0px" y="0px" viewBox="0 0 456.49 449.51" overflow="visible" xml:space="preserve">
<path id="junggu" fill="#172E5B" stroke="#000000" d="M285.3,163.29c0.23,0.66,0.53,1.27,0.9,1.77c-0.19,1.88-2.36,5.36-2.36,5.36
	l-4.86,6.42l-0.01-0.01c0,0-5.15-0.97-9.35-1.29c-4.19-0.33-7.73-1.29-11.28-1.62c-3.55-0.32-15.8-3.54-15.8-3.54
	s-0.04-0.13,0.01-0.34c0.1-0.37,0.5-0.98,1.93-1.6c2.25-0.96,4.19-5.15,5.8-9.67c1.61-4.51,2.26-9.67,2.26-9.67l0.12-0.07
	c0.75,1.61,2.04,2.71,4.39,2.97c2.9,0.32,13.22,1.61,19.34,2.58c4.45,0.7,6.69,2.43,7.7,4.31c0.28,1.78,0.7,3.41,1.2,4.37
	C285.29,163.27,285.29,163.28,285.3,163.29z"/>
<path id="donggu" fill="#FFD400" stroke="#000000" d="M445.65,126.53c2.58,4.52,14.19,13.54,9.03,15.48
	c-5.16,1.93-13.54,2.58-12.25,8.38c1.29,5.8,1.29,10.96,5.16,12.9c3.87,1.93,8.38,1.93,4.51,4.51s-1.29,7.09-12.25,7.09
	s-9.67,0-12.25,3.87c-2.58,3.87,0,6.45-5.16,6.45c-3.92,0-9.71-5.6-11.69-6.85c-0.54-1.38-1.51-3.76-2.17-5.08
	c-0.97-1.93-5.16-4.84-10.64-4.51c-5.48,0.32-10.32,5.15-16.44,5.48c-6.13,0.32-15.16-0.97-16.45-2.26
	c-1.29-1.29-4.51-6.77-12.57-14.51c-8.06-7.73-13.22-3.54-17.09-3.54c-3.87,0-6.12-1.94-9.35-2.58c-3.22-0.65-8.06,1.93-14.5,6.12
	c-6.45,4.19-19.99,8.06-22.57,8.71c-1.18,0.29-2.1-0.23-2.77-1.13c0.06-0.47-0.02-0.85-0.3-1.03c-0.21-0.14-0.4-0.39-0.6-0.74
	c-0.01-0.01-0.01-0.02-0.01-0.03c-0.25-0.73-0.42-1.51-0.51-2.23c-0.09-0.71-0.3-1.43-0.69-2.14c-0.3-1.82-0.47-3.79-0.47-5.34
	c0-3.65,7.29-11.4,11.39-16.19c4.11-4.79,8.21-0.46,10.26-1.6c2.06-1.14-0.45-4.1-1.14-7.29c-0.68-3.19,3.42-4.56,3.65-7.52
	c0.23-2.97,0.68-9.81,1.37-14.37c0.68-4.55-7.98-14.13-8.44-16.18c-0.45-2.05,2.28-5.24,1.6-8.66c-0.68-3.42-3.42-5.93-1.6-15.51
	c1.83-9.57-1.36-8.2-2.5-10.03c-1.14-1.82-1.6-5.24-2.51-8.2c-0.91-2.97-6.16-5.93-8.89-6.39c-2.74-0.45-3.65-4.33-5.47-8.66
	c-1.83-4.33-10.95-2.74-10.95-2.74l-0.24-0.24c7.78-7.58,20.04-18.78,23.98-18.21c4.51,0.64,17.41-3.87,24.5-3.23
	c7.09,0.65,25.79,0,25.79,0s4.51-4.51,9.03-5.15c4.51-0.65,14.83-3.87,19.34-2.58c4.52,1.29,6.45,1.93,10.96,5.8
	c4.52,3.87,12.9-0.64,16.77,3.22c3.87,3.87,12.25,3.23,14.83,10.97c2.58,7.73,2.58,13.54,3.87,16.76c1.29,3.22,7.09,7.74,7.09,7.74
	s4.51-3.23,5.16,3.87c0.64,7.09,2.58,10.96-1.29,13.54c-3.87,2.58-11.61,5.8-6.45,7.09s5.8-1.29,6.45,4.51
	c0.64,5.81-2.58,12.26-3.23,19.99c-0.64,7.74-1.29,12.9,2.58,14.19c3.87,1.29,9.03-5.16,10.96-2.58c1.94,2.58,9.03,10.32,8.39,13.54
	C448.23,122.66,443.07,122.02,445.65,126.53z"/>
<path id="suseonggu" fill="#9723E2" stroke="#000000" d="M410.19,178.76c1.29,3.22,6.45,5.8,0,14.19c-6.45,8.38-10.32,5.8-10.32,5.8
	s-10.31,9.67-9.02,10.96c1.29,1.29,6.44,2.58,7.73,5.16c1.29,2.58,5.16,10.96,4.52,15.47c-0.65,4.52-7.74,3.23-9.68,6.45
	c-1.93,3.23,1.29,3.87-6.44,4.52c-7.74,0.64-14.19,5.8-19.35,6.44c-3.23,0.41-4.68,0.56-5.32,1.87l-0.32-0.11
	c0,0-5.2-3.41-7.02-5.23c-1.82-1.83-9.57-3.65-15.5-2.74s-6.84-3.19-9.12-5.47s-14.13-2.28-20.52-2.28c-6.38,0-9.57-4.56-11.4-2.73
	c-1.82,1.82-12.31,1.36-14.59-0.92c-2.28-2.28-6.83,1.83-10.48,0c-3.65-1.82-7.75-0.91-11.4-2.28c-0.59-0.22-1.48-0.72-2.56-1.42
	c1.9-0.87,7.55-3.61,8.49-5.87c1.14-2.74,7.06-1.14,8.89-3.88c1.82-2.73,4.78-13.22,7.06-24.39s-5.01-15.27-5.01-15.27l0.15-0.19
	l4.86-6.42c0,0,2.17-3.48,2.36-5.36c0.67,0.9,1.59,1.42,2.77,1.13c2.58-0.65,16.12-4.52,22.57-8.71c6.44-4.19,11.28-6.77,14.5-6.12
	c3.23,0.64,5.48,2.58,9.35,2.58c3.87,0,9.03-4.19,17.09,3.54c8.06,7.74,11.28,13.22,12.57,14.51c1.29,1.29,10.32,2.58,16.45,2.26
	c6.12-0.33,10.96-5.16,16.44-5.48c5.48-0.33,9.67,2.58,10.64,4.51c0.66,1.32,1.63,3.7,2.17,5.08
	C410.13,177.96,409.88,177.99,410.19,178.76z"/>
<path id="bukgu" fill="#7F6E24" stroke="#000000" d="M300.71,90.4c0.46,2.05,9.12,11.63,8.44,16.18c-0.69,4.56-1.14,11.4-1.37,14.37
	c-0.23,2.96-4.33,4.33-3.65,7.52c0.69,3.19,3.2,6.15,1.14,7.29c-2.05,1.14-6.15-3.19-10.26,1.6c-4.1,4.79-11.39,12.54-11.39,16.19
	c0,1.55,0.17,3.52,0.47,5.34c-1.01-1.88-3.25-3.61-7.7-4.31c-6.12-0.97-16.44-2.26-19.34-2.58c-2.35-0.26-3.64-1.36-4.39-2.97
	c-0.17-0.38-0.32-0.79-0.44-1.22c-0.65-2.26-2.26-4.19-5.81-4.19c-3.54,0-11.28-4.19-16.44-6.77s-16.12-0.65-21.92,0.64
	c-5.81,1.29-19.67,0.97-19.67,0.97l-0.28,0.04c-0.46-3.19-3.19-0.46-6.84-1.82c-3.65-1.37-12.77-5.02-12.77-5.02l-0.45-0.22
	c1.87-4.03,2.68-8.34,1.64-10.07c-1.93-3.22-3.87-9.02,1.29-9.02s10.32,0.64,13.54-2.58c3.23-3.23,7.09-5.16,8.38-10.96
	c1.29-5.81-0.64-9.03,3.23-7.1c3.87,1.94,3.22-5.8,4.51-12.25c1.29-6.45,4.52-19.99,0.65-19.34c-3.87,0.64-7.1-6.45-8.39-12.9
	c-1.29-6.45-1.93-10.96,1.94-10.31c3.87,0.64,5.8,0.64,14.18,5.8c8.39,5.16,3.23,11.61,10.97,12.89c7.73,1.29,5.15,1.29,5.15-3.22
	s3.23-9.67,7.1-10.96c3.87-1.29,10.31-3.22,18.7-3.22c8.38,0,9.02,1.93,16.12-5.16c0.91-0.91,1.96-1.95,3.1-3.07l0.24,0.24
	c0,0,9.12-1.59,10.95,2.74c1.82,4.33,2.73,8.21,5.47,8.66c2.73,0.46,7.98,3.42,8.89,6.39c0.91,2.96,1.37,6.38,2.51,8.2
	c1.14,1.83,4.33,0.46,2.5,10.03c-1.82,9.58,0.92,12.09,1.6,15.51C302.99,85.16,300.26,88.35,300.71,90.4z"/>
<path id="dalseogu" fill="#5E1717" stroke="#000000" d="M258.77,226.72c0,0,2.73,4.34,0,7.76c-2.74,3.41-15.05,7.75-16.64,7.97
	c-1.6,0.23-0.92,7.3-0.92,9.58s-2.73,12.99-6.15,14.13c-3.42,1.14-10.03,1.6-12.31-2.96s-6.61-13.68-13.45-13.68
	s-15.05-4.79-17.33-7.07s-6.15-7.52-7.75-12.08c-1.59-4.56-10.03-6.38-14.59-7.07c-4.56-0.68-16.41-3.64-18.92-9.57
	c-2.51-5.93-4.56-6.61-5.93-6.61c-1.14,0-4.2,1.43-5.17,1.91c-0.27-0.21-0.57-0.41-0.88-0.61c-3.8-2.44-6.92-5.24-9.54-7.84
	c0.74-0.58,4.48-3.77,5.35-9.57c0.97-6.45,10.32-28.05,13.22-28.05c2.9,0,9.99,4.52,16.76,3.87c6.77-0.64,27.41-5.16,27.41-5.16
	l0.18-0.17c2.03,2.14,5.11,3.9,5.11,3.9s5.01,0.91,6.38,5.02c1.37,4.1,3.19,3.19,7.75,4.56c4.56,1.36,22.34,0.91,24.16-0.92
	c1.83-1.82,6.84-4.55,6.84-4.55c-0.01,0.05-0.04,0.22-0.08,0.49c-0.37,2.19-1.86,11.09-2.65,15.46
	c-0.91,5.02-11.86,13.68-9.58,17.78c2.28,4.11,7.3,5.93,10.49,8.67c2.67,2.28,13.32,10.96,18.87,14.53
	C259,226.62,258.77,226.72,258.77,226.72z"/>
<path id="seogu" fill="#665A25" stroke="#000000" d="M242.35,169.51c0,0-5.01,2.73-6.84,4.55c-1.82,1.83-19.6,2.28-24.16,0.92
	c-4.56-1.37-6.38-0.46-7.75-4.56c-1.37-4.11-6.38-5.02-6.38-5.02s-3.08-1.76-5.11-3.9c-0.9-0.94-1.6-1.97-1.73-2.94
	c-0.46-3.19-4.11-5.01-6.84-7.75c-2.74-2.73,5.01-9.12,4.56-12.31l0.28-0.04c0,0,13.86,0.32,19.67-0.97
	c5.8-1.29,16.76-3.22,21.92-0.64s12.9,6.77,16.44,6.77c3.55,0,5.16,1.93,5.81,4.19c0.12,0.43,0.27,0.84,0.44,1.22l-0.12,0.07
	c0,0-0.65,5.16-2.26,9.67c-1.61,4.52-3.55,8.71-5.8,9.67c-1.43,0.62-1.83,1.23-1.93,1.6l-0.28-0.04
	C242.31,169.73,242.34,169.56,242.35,169.51z"/>
<path id="dalsung1" fill="#E51717" stroke="#000000" d="M375.37,282.57c1.29,5.16-0.64,8.39-1.29,14.19
	c-0.64,5.8-1.29,8.38-3.22,8.38c-1.94,0,4.51,5.8,0.64,9.67s-6.45,3.87-7.09,7.74c-0.65,3.87-4.51,5.16-12.25,6.45
	c-7.74,1.29-7.74-7.09-10.32-5.81c-2.58,1.29-13.54,7.1-13.54,7.1s-8.38,9.02-12.25,10.31c-3.87,1.29-12.9-3.86-12.9-3.86
	s-8.38,5.8-8.38,3.22s-7.74-3.87-5.8-9.67c1.93-5.81,3.87-10.96,0.64-10.32c-3.22,0.65-7.09,1.94-6.44-1.93
	c0.64-3.87,3.86-1.94,5.15-5.81c1.29-3.87-4.51-10.96-10.31-9.02c-5.81,1.93-10.96,3.22-10.96,6.44c0,3.23-7.74,5.16-9.68,0
	c-1.93-5.15-0.64-12.25-4.51-9.02c-3.87,3.22-4.51,9.02-7.74,9.67c-3.22,0.64-2.58-9.03-5.8-4.51c-3.22,4.51-1.94,9.02-5.8,10.31
	c-3.87,1.29-8.39,0-11.61,1.94c-3.22,1.93,0.64,7.73-7.09,8.38c-7.74,0.64-19.35-1.29-18.06,3.87c1.29,5.16,1.94,7.09,3.23,13.54
	c1.29,6.45,2.58,13.54,0,17.41s0,1.93-4.52,5.8c-4.51,3.87-5.16,1.94-10.96,3.87c-5.8,1.93-7.74-1.29-9.67,4.51
	c-1.93,5.81-4.51,10.96-0.65,16.12c3.87,5.16,7.1,16.12,3.87,18.7c-3.22,2.58-12.89,2.58-15.47,3.87c-2.58,1.29-2.58,1.29-5.8,1.94
	c-3.23,0.64-11.61,3.22-12.26,0.64c-0.64-2.58-0.64-5.8-3.86-3.22c-3.23,2.58-3.23,3.22-6.45,4.51c-3.23,1.29-8.38-3.22-12.9-2.58
	c-4.51,0.65-9.03-1.29-12.25-0.64c-0.01,0-0.02,0-0.03,0.01c1.14-2.27-2.07,0.39,0,0c-0.59,1.16-2.3,3.6-6.42,8.37
	c-12.25,14.18-7.74,12.89-14.18,14.83c-6.45,1.93-9.67,1.93-18.06,3.22c-8.38,1.29-9.67-1.29-14.83,1.94
	c-5.16,3.22-3.87,1.93-9.67,3.22c-5.8,1.29-10.96,2.58-10.96,2.58s-3.87-7.74,0-10.32c3.87-2.58,7.09-0.64,7.09-3.87
	c0-3.22,8.38-9.67,9.03-12.25c0.64-2.58,8.38-1.93,4.51-7.73c-3.87-5.81-19.34-20.64-21.92-21.28
	c-2.58-0.65-19.99-13.54-21.92-19.35c-1.94-5.8-9.68-16.12-9.68-20.63c0-4.51-4.51-16.76,1.94-16.12c6.45,0.65,14.83-2.58,19.34,0
	c4.52,2.58,14.83-0.64,18.06,0.65c3.22,1.28,2.58,5.15,9.02,6.44c6.45,1.29,11.61,0.65,15.48,2.58c3.87,1.94,12.25-0.64,15.47-2.58
	c3.23-1.93,9.68-6.44,9.68-6.44l3.87-16.12c0,0-1.29-3.87-5.16-5.81c-3.87-1.93-23.86-10.96-23.86-10.96s-7.74,2.58-10.32-1.29
	c-2.58-3.87-12.25-18.7-12.25-18.7s-5.8-7.74,3.23-12.25c9.02-4.51,12.25-5.16,15.47-17.41c3.22-12.25,1.29-22.57,5.16-21.92
	c3.87,0.64,11.61-10.32,22.57-9.67c10.96,0.64,47.07,1.93,49-1.29c1.87-3.12,8.55-8.04,0.88-13.58c0.97-0.48,4.03-1.91,5.17-1.91
	c1.37,0,3.42,0.68,5.93,6.61c2.51,5.93,14.36,8.89,18.92,9.57c4.56,0.69,13,2.51,14.59,7.07c1.6,4.56,5.47,9.8,7.75,12.08
	s10.49,7.07,17.33,7.07s11.17,9.12,13.45,13.68s8.89,4.1,12.31,2.96c3.42-1.14,6.15-11.85,6.15-14.13s-0.68-9.35,0.92-9.58
	c1.59-0.22,13.9-4.56,16.64-7.97c2.73-3.42,0-7.76,0-7.76s0.23-0.1,0.63-0.28c1.08,0.7,1.97,1.2,2.56,1.42
	c3.65,1.37,7.75,0.46,11.4,2.28c3.65,1.83,8.2-2.28,10.48,0c2.28,2.28,12.77,2.74,14.59,0.92c1.83-1.83,5.02,2.73,11.4,2.73
	c6.39,0,18.24,0,20.52,2.28s3.19,6.38,9.12,5.47s13.68,0.91,15.5,2.74c1.82,1.82,7.02,5.23,7.02,5.23l0.32,0.11
	c-0.39,0.8-0.48,2.01-0.48,3.94c0,5.16,1.93,6.44,3.87,7.09c1.93,0.64,0,3.22,1.29,5.8c1.29,2.58,3.22,3.23,3.22,3.23
	s1.29,0.64,1.94,4.51C372.79,278.06,374.08,277.41,375.37,282.57z"/>
<path id="dalsung2" fill="#E51717" stroke="#000000" d="M192.11,161.5l-0.18,0.17c0,0-20.64,4.52-27.41,5.16
	c-6.77,0.65-13.86-3.87-16.76-3.87c-2.9,0-12.25,21.6-13.22,28.05c-0.87,5.8-4.61,8.99-5.35,9.57c-3.6-3.57-6.27-6.79-8.51-8.28
	c-3.87-2.58-16.77-11.6-23.86-11.6c-7.09,0-34.17-1.29-34.17-1.29s-1.29-1.29-3.87,0.64c-2.58,1.93-8.39,7.74-10.32,1.29
	c-1.93-6.45-7.74-17.41-5.8-22.57c1.93-5.16,10.96-19.34,15.47-22.57c4.52-3.22,6.45-9.67,7.74-15.47c1.29-5.8,5.16-10.96,7.74-12.9
	c2.58-1.93,11.6-13.54,14.83-14.18c3.22-0.65,9.02,2.58,12.25-0.65c3.22-3.22,1.29-3.87,5.16-6.44c3.87-2.58,10.96-6.45,10.96-6.45
	s3.22,5.16,7.09,5.8c3.87,0.65,16.12-0.64,16.77,4.51c0.64,5.16-2.58,11.61-2.58,14.83c0,3.23,3.22,1.29,3.87,4.52
	c0.64,3.22-10.32,3.87-10.97,7.09c-0.64,3.22-5.8,14.19,3.23,14.83c9.02,0.65,17.41,1.29,18.05-1.29c0.65-2.58,5.16-3.87,5.16,1.29
	c0,5.16-1.93,10.32,3.87,7.74c2.7-1.2,5.12-4.49,6.74-7.99l0.45,0.22c0,0,9.12,3.65,12.77,5.02c3.65,1.36,6.38-1.37,6.84,1.82
	c0.45,3.19-7.3,9.58-4.56,12.31c2.73,2.74,6.38,4.56,6.84,7.75C190.51,159.53,191.21,160.56,192.11,161.5z"/>
<g>
	<path id="namgu" fill="#E02490" stroke="#000000" d="M278.83,177.03c0,0,7.29,4.1,5.01,15.27s-5.24,21.66-7.06,24.39
		c-1.83,2.74-7.75,1.14-8.89,3.88c-0.94,2.26-6.59,5-8.49,5.87c-5.55-3.57-16.2-12.25-18.87-14.53c-3.19-2.74-8.21-4.56-10.49-8.67
		c-2.28-4.1,8.67-12.76,9.58-17.78c0.79-4.37,2.28-13.27,2.65-15.46l0.28,0.04c-0.05,0.21-0.01,0.34-0.01,0.34s12.25,3.22,15.8,3.54
		c3.55,0.33,7.09,1.29,11.28,1.62c4.2,0.32,9.35,1.29,9.35,1.29l0.01,0.01L278.83,177.03z"/>
	<text transform="matrix(1 0 0 1 248.3825 200.5965)" font-family="'AdobeMyungjoStd-Medium-KSCpc-EUC-H'" font-size="12px">중구</text>
</g>
</svg>
